<?xml version="1.0" standalone="no"?>
<!DOCTYPE svg PUBLIC "-//W3C//DTD SVG 20010904//EN"
 "http://www.w3.org/TR/2001/REC-SVG-20010904/DTD/svg10.dtd">
<svg version="1.0" xmlns="http://www.w3.org/2000/svg"
 width="512.000000pt" height="512.000000pt" viewBox="0 0 512.000000 512.000000"
 preserveAspectRatio="xMidYMid meet">
<metadata>
Created by potrace 1.14, written by Peter Selinger 2001-2017
</metadata>
<g transform="translate(0.000000,512.000000) scale(0.100000,-0.100000)"
fill="#000000" stroke="none">
<path d="M0 2560 l0 -2560 796 0 c774 0 795 1 792 19 -2 11 8 27 22 39 25 20
25 21 8 50 -10 17 -18 41 -18 55 0 18 -10 32 -35 47 -19 12 -40 18 -46 14 -8
-4 -9 -3 -5 4 10 17 24 15 57 -9 24 -17 34 -19 57 -10 l27 11 -27 -4 c-19 -2
-28 1 -28 11 0 8 -5 11 -10 8 -6 -3 -10 -2 -10 4 0 11 54 9 83 -4 9 -4 17 -3
17 2 0 15 -22 32 -35 26 -8 -2 -19 6 -25 19 -10 21 -10 21 3 5 14 -17 53 -14
42 3 -3 5 -1 12 5 15 8 5 8 11 0 20 -8 9 -5 14 11 18 17 5 19 10 13 29 -4 13
-8 33 -9 46 0 12 -4 22 -10 22 -5 0 -23 10 -39 23 -46 35 -129 117 -119 117
10 0 13 34 7 69 -7 33 -28 11 -30 -32 -1 -37 -13 -124 -21 -149 -20 -74 -122
97 -123 206 0 38 42 93 77 100 33 8 74 43 128 110 21 26 49 52 61 57 13 4 78
55 146 113 68 58 170 143 227 188 70 55 112 96 126 123 11 22 27 40 35 40 19
0 21 56 3 118 -8 26 -11 51 -8 56 3 5 8 33 11 63 3 29 15 68 27 87 18 30 21
48 19 130 -2 82 -6 104 -31 156 -16 33 -34 74 -41 92 -6 17 -20 39 -31 49 -10
9 -19 23 -19 31 0 7 -4 13 -9 13 -8 0 -7 33 1 107 2 15 26 5 30 -13 2 -8 8
-10 16 -5 16 10 5 41 -13 35 -23 -9 -27 16 -7 54 10 20 17 43 15 50 -5 14 14
17 19 3 5 -14 58 0 58 15 0 8 -5 14 -11 14 -6 0 -4 7 5 15 8 8 21 15 28 15 10
0 10 2 -1 9 -17 11 -4 34 15 27 20 -8 44 4 44 20 0 19 7 18 46 -7 30 -18 35
-19 40 -5 5 12 10 13 25 6 16 -9 20 -6 27 22 7 26 13 32 30 30 15 -2 22 2 22
13 0 8 7 18 15 21 8 4 13 10 10 14 -7 12 37 9 53 -3 8 -6 17 -5 26 2 8 6 18
11 22 10 5 -1 17 1 27 6 12 5 27 1 46 -12 21 -16 40 -20 89 -19 34 1 62 -1 62
-6 0 -4 12 -3 27 3 18 7 30 6 37 -1 6 -7 7 -10 1 -8 -5 2 -12 -1 -15 -7 -3 -5
7 -10 22 -10 14 -1 33 -6 41 -13 12 -10 16 -9 21 4 5 12 13 14 38 9 18 -4 38
-10 43 -14 6 -3 30 -11 55 -16 28 -6 45 -16 45 -25 0 -15 37 -61 44 -55 2 3
-4 16 -13 31 -17 24 -17 27 0 45 16 17 19 18 26 4 5 -8 7 -19 3 -24 -3 -5 -1
-12 5 -16 5 -3 10 -1 10 4 0 19 22 12 27 -9 5 -18 15 -24 36 -21 4 1 10 -6 13
-14 3 -8 10 -13 15 -10 4 3 5 13 2 23 -6 15 -4 15 9 4 14 -11 16 -10 11 7 -3
12 -9 22 -14 22 -5 1 -15 2 -21 3 -7 0 -13 10 -13 21 0 24 -62 67 -85 60 -22
-7 -73 33 -66 52 4 8 0 13 -8 11 -18 -4 -66 51 -66 75 0 9 -1 20 -2 25 -1 4
11 9 28 12 22 4 32 13 40 40 8 24 17 34 29 32 13 -2 15 2 11 16 -7 22 19 39
28 19 2 -7 5 -3 5 8 1 16 7 14 39 -17 22 -22 68 -48 115 -67 43 -17 80 -31 83
-31 2 0 -10 27 -27 60 -25 50 -28 62 -17 79 9 15 9 23 -1 35 -13 16 -6 56 10
56 15 0 10 24 -16 76 -23 45 -24 52 -11 84 25 63 36 106 36 136 0 17 11 45 24
63 14 19 28 47 31 63 5 20 12 28 21 24 8 -3 21 5 30 19 9 14 36 35 60 47 24
12 44 25 44 30 0 4 12 8 26 8 15 0 23 4 19 10 -4 7 6 10 27 10 82 -2 156 9
189 29 20 13 51 21 77 21 48 0 138 50 148 82 3 10 12 18 20 18 8 0 14 5 14 10
0 15 57 12 90 -5 16 -8 33 -15 37 -14 26 4 43 -3 43 -19 0 -33 8 -34 85 -7 18
6 18 5 3 -5 -24 -15 -22 -28 5 -32 17 -2 22 -9 20 -30 -1 -24 1 -26 27 -23 34
5 47 -9 30 -30 -15 -18 -11 -18 59 0 65 16 121 17 121 1 0 -6 5 -4 10 4 6 10
10 11 10 3 0 -23 2 -28 12 -41 6 -7 21 -12 32 -11 30 3 88 -21 83 -35 -3 -6 3
-19 11 -29 16 -18 28 -46 63 -147 19 -56 57 -110 77 -110 16 0 21 -13 27 -60
6 -44 30 -100 44 -100 4 0 16 -18 26 -40 10 -22 24 -40 31 -40 7 0 15 -8 18
-18 4 -10 13 -19 21 -19 13 0 15 133 15 1089 l0 1088 -2560 0 -2560 0 0 -2560z
m4210 1682 c16 -13 23 -32 27 -72 3 -30 5 -59 4 -65 -2 -66 -10 -114 -19 -132
-7 -12 -12 -30 -13 -40 0 -15 -2 -14 -9 5 -16 40 -32 26 -25 -22 6 -38 4 -47
-14 -62 -12 -10 -21 -24 -21 -31 0 -25 -91 -45 -105 -24 -3 6 4 54 15 107 l20
97 -35 45 c-21 27 -35 57 -35 73 0 38 40 100 62 95 9 -2 19 2 22 10 5 13 53
31 87 33 9 1 27 -7 39 -17z m270 -612 c0 -5 -2 -10 -4 -10 -3 0 -8 5 -11 10
-3 6 -1 10 4 10 6 0 11 -4 11 -10z m34 -29 c-9 -10 -26 18 -18 30 5 9 9 8 14
-7 4 -10 6 -21 4 -23z m-1439 -740 c3 -5 1 -12 -5 -16 -5 -3 -10 1 -10 9 0 18
6 21 15 7z m85 -272 c0 -6 -4 -7 -10 -4 -5 3 -10 11 -10 16 0 6 5 7 10 4 6 -3
10 -11 10 -16z m45 -8 c-6 -5 -25 10 -25 20 0 5 6 4 14 -3 8 -7 12 -15 11 -17z
m-960 -41 c3 -5 1 -10 -4 -10 -6 0 -11 5 -11 10 0 6 2 10 4 10 3 0 8 -4 11
-10z m-1075 -1720 c0 -5 -4 -10 -10 -10 -5 0 -10 5 -10 10 0 6 5 10 10 10 6 0
10 -4 10 -10z m471 -430 c-10 -6 -9 -10 5 -18 10 -6 16 -14 12 -17 -11 -11
-39 22 -32 38 3 8 0 18 -6 22 -9 6 -9 10 1 16 10 6 17 2 23 -12 7 -15 6 -23
-3 -29z m-1153 -233 c2 -12 -3 -17 -17 -17 -12 0 -21 6 -21 13 0 31 32 34 38
4z"/>
<path d="M4255 3710 c3 -5 8 -10 11 -10 2 0 4 5 4 10 0 6 -5 10 -11 10 -5 0
-7 -4 -4 -10z"/>
<path d="M4070 3646 c6 -8 18 -12 26 -9 19 7 7 23 -18 23 -17 0 -18 -3 -8 -14z"/>
<path d="M4468 3057 c7 -8 9 -17 5 -21 -4 -4 -1 -12 7 -17 11 -8 9 -9 -10 -5
-24 5 -26 2 -28 -31 -2 -20 -5 -40 -8 -45 -3 -4 4 -8 15 -8 13 0 21 -7 22 -17
0 -15 2 -14 9 3 8 21 50 40 50 23 0 -5 6 -9 13 -9 8 0 28 -18 45 -39 32 -40
40 -57 22 -46 -6 3 -10 -4 -10 -16 l0 -22 25 23 c27 25 32 21 13 -10 -16 -25
-6 -34 29 -25 15 4 22 10 16 12 -7 3 -13 13 -13 23 0 20 23 43 33 33 4 -3 7
-2 7 3 0 6 -6 16 -12 23 -11 10 -10 11 5 5 14 -5 16 -2 10 12 -5 13 -3 16 9
11 18 -6 30 13 20 30 -4 6 -32 29 -62 51 -30 23 -61 46 -68 52 -14 13 -55 3
-47 -11 8 -12 -2 -11 -25 1 -15 8 -21 6 -29 -7 -10 -17 -11 -16 -17 4 -3 12
-13 24 -21 28 -12 4 -13 3 -5 -8z"/>
<path d="M5091 2913 c-1 -26 14 -31 23 -7 3 8 2 13 -3 9 -5 -3 -12 1 -14 7 -3
7 -6 3 -6 -9z"/>
<path d="M4759 2913 c-1 -5 -3 -18 -4 -30 -1 -12 -5 -28 -8 -37 -7 -19 1 -46
14 -46 5 0 9 5 9 11 0 7 8 18 18 26 12 10 14 16 5 19 -7 3 -13 19 -13 35 0 25
-18 43 -21 22z"/>
<path d="M4498 2903 c7 -3 16 -2 19 1 4 3 -2 6 -13 5 -11 0 -14 -3 -6 -6z"/>
<path d="M4767 2739 c4 -13 9 -17 15 -11 11 11 3 32 -12 32 -4 0 -6 -9 -3 -21z"/>
<path d="M3315 2450 c-3 -5 1 -10 10 -10 9 0 13 5 10 10 -3 6 -8 10 -10 10 -2
0 -7 -4 -10 -10z"/>
<path d="M2120 2406 c0 -2 7 -9 15 -16 13 -11 14 -10 9 4 -5 14 -24 23 -24 12z"/>
<path d="M3415 2150 c-3 -5 -2 -10 4 -10 5 0 13 5 16 10 3 6 2 10 -4 10 -5 0
-13 -4 -16 -10z"/>
<path d="M2049 1259 c-199 -152 -239 -183 -279 -220 -49 -45 -39 -42 30 12 24
19 41 29 37 23 -9 -16 19 -38 38 -30 8 3 15 12 15 21 0 8 6 15 13 15 21 0 100
92 86 101 -7 4 3 17 26 35 55 42 101 83 94 84 -4 0 -31 -18 -60 -41z"/>
<path d="M1835 1000 c-3 -5 -2 -10 4 -10 5 0 13 5 16 10 3 6 2 10 -4 10 -5 0
-13 -4 -16 -10z"/>
<path d="M1679 963 c-13 -15 -12 -15 9 -4 23 12 28 21 13 21 -5 0 -15 -7 -22
-17z"/>
</g>
</svg>
